<mxfile host="Electron" modified="2024-06-16T12:25:06.303Z" agent="Mozilla/5.0 (Windows NT 10.0; Win64; x64) AppleWebKit/537.36 (KHTML, like Gecko) draw.io/24.5.3 Chrome/124.0.6367.207 Electron/30.0.6 Safari/537.36" etag="1w0b5yF6SPTaJdHxFcQg" version="24.5.3" type="device">
  <diagram name="Страница — 1" id="rVp9Bo-PFsmNAwKpcUmX">
    <mxGraphModel dx="5925" dy="6234" grid="1" gridSize="10" guides="1" tooltips="1" connect="1" arrows="1" fold="1" page="1" pageScale="1" pageWidth="3300" pageHeight="4681" math="0" shadow="0">
      <root>
        <mxCell id="0" />
        <mxCell id="1" parent="0" />
        <mxCell id="qJXxP2rnNKoGe4K1dWwI-4" style="edgeStyle=orthogonalEdgeStyle;rounded=0;orthogonalLoop=1;jettySize=auto;html=1;" edge="1" parent="1" source="qJXxP2rnNKoGe4K1dWwI-3">
          <mxGeometry relative="1" as="geometry">
            <mxPoint x="360" y="130" as="targetPoint" />
          </mxGeometry>
        </mxCell>
        <mxCell id="qJXxP2rnNKoGe4K1dWwI-3" value="&lt;font size=&quot;3&quot;&gt;Cтарт&lt;/font&gt;" style="ellipse;whiteSpace=wrap;html=1;" vertex="1" parent="1">
          <mxGeometry x="300" y="10" width="120" height="60" as="geometry" />
        </mxCell>
        <mxCell id="qJXxP2rnNKoGe4K1dWwI-15" style="edgeStyle=orthogonalEdgeStyle;rounded=0;orthogonalLoop=1;jettySize=auto;html=1;entryX=0.5;entryY=0;entryDx=0;entryDy=0;" edge="1" parent="1" source="qJXxP2rnNKoGe4K1dWwI-9" target="qJXxP2rnNKoGe4K1dWwI-11">
          <mxGeometry relative="1" as="geometry" />
        </mxCell>
        <mxCell id="qJXxP2rnNKoGe4K1dWwI-9" value="&lt;div&gt;&lt;br&gt;&lt;div&gt;&lt;font size=&quot;3&quot;&gt;// В методе Main создаем массив строк.&lt;/font&gt;&lt;/div&gt;&lt;/div&gt;&lt;span style=&quot;font-size: medium;&quot;&gt;strin[]str = [&quot;1234&quot;,&quot;1567&quot;,&quot;-2&quot;,computer science&quot;]&lt;/span&gt;&lt;div&gt;&lt;font size=&quot;3&quot;&gt;//Создаём переменную тип string[] и присваеиваем ей фунцию CreateNewStringArray принимающую на вход str[]&lt;/font&gt;&lt;/div&gt;&lt;div&gt;&lt;font size=&quot;3&quot;&gt;&lt;br&gt;&lt;/font&gt;&lt;/div&gt;&lt;div&gt;&lt;font size=&quot;3&quot;&gt;string[]s =&amp;nbsp;&lt;/font&gt;&lt;span style=&quot;font-size: medium;&quot;&gt;CreateNewStringArray(str);&lt;/span&gt;&lt;/div&gt;&lt;div&gt;&lt;span style=&quot;font-size: medium;&quot;&gt;&lt;br&gt;&lt;/span&gt;&lt;/div&gt;&lt;div&gt;&lt;font size=&quot;3&quot;&gt;// Передаём фунции печати PrintArrayString переменную s&lt;/font&gt;&lt;/div&gt;&lt;div&gt;&lt;font size=&quot;3&quot;&gt;&lt;br&gt;&lt;/font&gt;&lt;/div&gt;&lt;div&gt;&lt;span style=&quot;font-size: medium;&quot;&gt;PrintArrayString (s);&lt;/span&gt;&lt;font size=&quot;3&quot;&gt;&lt;br&gt;&lt;/font&gt;&lt;div&gt;&lt;br&gt;&lt;/div&gt;&lt;/div&gt;" style="rounded=0;whiteSpace=wrap;html=1;" vertex="1" parent="1">
          <mxGeometry x="134.07" y="130" width="460" height="210" as="geometry" />
        </mxCell>
        <mxCell id="qJXxP2rnNKoGe4K1dWwI-16" style="edgeStyle=orthogonalEdgeStyle;rounded=0;orthogonalLoop=1;jettySize=auto;html=1;" edge="1" parent="1" source="qJXxP2rnNKoGe4K1dWwI-11" target="qJXxP2rnNKoGe4K1dWwI-17">
          <mxGeometry relative="1" as="geometry">
            <mxPoint x="360" y="510" as="targetPoint" />
          </mxGeometry>
        </mxCell>
        <mxCell id="qJXxP2rnNKoGe4K1dWwI-11" value="&lt;font style=&quot;font-size: 18px;&quot;&gt;// Создаём функцию CreatenewStringArray&amp;nbsp; принимающую на вход массив строк созданный выше.&lt;/font&gt;&lt;div&gt;&lt;font size=&quot;3&quot;&gt;&lt;br&gt;&lt;/font&gt;&lt;div&gt;&lt;font size=&quot;3&quot;&gt;&amp;nbsp;string[]CreateNewStringArray(string[]str)&lt;/font&gt;&lt;/div&gt;&lt;/div&gt;&lt;div&gt;&lt;font size=&quot;3&quot;&gt;int count = Position(str); //&amp;nbsp; Вызов функции которая возвращает количество строк не превышающие параметр &amp;lt;=3&lt;/font&gt;&lt;/div&gt;&lt;div&gt;&lt;font size=&quot;3&quot;&gt;&amp;nbsp;&lt;/font&gt;&lt;/div&gt;&lt;div&gt;&lt;font size=&quot;3&quot;&gt;string[]strnew = new string[count]; //новый пустой массив&lt;/font&gt;&lt;/div&gt;&lt;div&gt;&lt;font size=&quot;3&quot;&gt;int i = 0;&lt;/font&gt;&lt;/div&gt;&lt;div&gt;&lt;font size=&quot;3&quot;&gt;&lt;br&gt;&lt;/font&gt;&lt;/div&gt;&lt;div&gt;&lt;font size=&quot;3&quot;&gt;&lt;br&gt;&lt;/font&gt;&lt;/div&gt;&lt;div&gt;&lt;font size=&quot;3&quot;&gt;&lt;br&gt;&lt;/font&gt;&lt;/div&gt;" style="rounded=0;whiteSpace=wrap;html=1;" vertex="1" parent="1">
          <mxGeometry x="140.95" y="360" width="446.25" height="270" as="geometry" />
        </mxCell>
        <mxCell id="qJXxP2rnNKoGe4K1dWwI-68" style="edgeStyle=orthogonalEdgeStyle;rounded=0;orthogonalLoop=1;jettySize=auto;html=1;" edge="1" parent="1" source="qJXxP2rnNKoGe4K1dWwI-17">
          <mxGeometry relative="1" as="geometry">
            <mxPoint x="364.0749999999998" y="950" as="targetPoint" />
          </mxGeometry>
        </mxCell>
        <mxCell id="qJXxP2rnNKoGe4K1dWwI-69" value="YES" style="edgeLabel;html=1;align=center;verticalAlign=middle;resizable=0;points=[];" vertex="1" connectable="0" parent="qJXxP2rnNKoGe4K1dWwI-68">
          <mxGeometry x="-0.3008" y="-2" relative="1" as="geometry">
            <mxPoint as="offset" />
          </mxGeometry>
        </mxCell>
        <mxCell id="qJXxP2rnNKoGe4K1dWwI-78" style="edgeStyle=orthogonalEdgeStyle;rounded=0;orthogonalLoop=1;jettySize=auto;html=1;entryX=0;entryY=0.5;entryDx=0;entryDy=0;" edge="1" parent="1" source="qJXxP2rnNKoGe4K1dWwI-17" target="qJXxP2rnNKoGe4K1dWwI-77">
          <mxGeometry relative="1" as="geometry" />
        </mxCell>
        <mxCell id="qJXxP2rnNKoGe4K1dWwI-17" value="&lt;font size=&quot;3&quot;&gt;foreah(string s in str)&lt;/font&gt;" style="rhombus;whiteSpace=wrap;html=1;" vertex="1" parent="1">
          <mxGeometry x="135.95" y="640" width="454.05" height="120" as="geometry" />
        </mxCell>
        <mxCell id="qJXxP2rnNKoGe4K1dWwI-28" value="yes" style="edgeStyle=orthogonalEdgeStyle;rounded=0;orthogonalLoop=1;jettySize=auto;html=1;entryX=0.5;entryY=0;entryDx=0;entryDy=0;" edge="1" parent="1" source="qJXxP2rnNKoGe4K1dWwI-19" target="qJXxP2rnNKoGe4K1dWwI-21">
          <mxGeometry relative="1" as="geometry" />
        </mxCell>
        <mxCell id="qJXxP2rnNKoGe4K1dWwI-35" value="no" style="edgeStyle=orthogonalEdgeStyle;rounded=0;orthogonalLoop=1;jettySize=auto;html=1;" edge="1" parent="1" source="qJXxP2rnNKoGe4K1dWwI-19">
          <mxGeometry relative="1" as="geometry">
            <mxPoint x="30" y="915" as="targetPoint" />
          </mxGeometry>
        </mxCell>
        <mxCell id="qJXxP2rnNKoGe4K1dWwI-19" value="&lt;font size=&quot;3&quot;&gt;if(str[i].Count()&amp;lt;=3)&lt;/font&gt;" style="rhombus;whiteSpace=wrap;html=1;" vertex="1" parent="1">
          <mxGeometry x="134.07" y="960" width="451.86" height="90" as="geometry" />
        </mxCell>
        <mxCell id="qJXxP2rnNKoGe4K1dWwI-34" style="edgeStyle=orthogonalEdgeStyle;rounded=0;orthogonalLoop=1;jettySize=auto;html=1;entryX=0.5;entryY=1;entryDx=0;entryDy=0;" edge="1" parent="1" source="qJXxP2rnNKoGe4K1dWwI-21" target="qJXxP2rnNKoGe4K1dWwI-31">
          <mxGeometry relative="1" as="geometry" />
        </mxCell>
        <mxCell id="qJXxP2rnNKoGe4K1dWwI-21" value="&lt;font size=&quot;3&quot;&gt;strnew[i]=s;&lt;/font&gt;" style="rounded=0;whiteSpace=wrap;html=1;" vertex="1" parent="1">
          <mxGeometry x="160" y="1130" width="400" height="60" as="geometry" />
        </mxCell>
        <mxCell id="qJXxP2rnNKoGe4K1dWwI-33" style="edgeStyle=orthogonalEdgeStyle;rounded=0;orthogonalLoop=1;jettySize=auto;html=1;entryX=0;entryY=0.5;entryDx=0;entryDy=0;" edge="1" parent="1" source="qJXxP2rnNKoGe4K1dWwI-31" target="qJXxP2rnNKoGe4K1dWwI-17">
          <mxGeometry relative="1" as="geometry">
            <Array as="points">
              <mxPoint x="30" y="700" />
            </Array>
          </mxGeometry>
        </mxCell>
        <mxCell id="qJXxP2rnNKoGe4K1dWwI-31" value="&lt;font size=&quot;3&quot;&gt;i++;&lt;/font&gt;" style="rounded=0;whiteSpace=wrap;html=1;" vertex="1" parent="1">
          <mxGeometry x="-30" y="850" width="120" height="60" as="geometry" />
        </mxCell>
        <mxCell id="qJXxP2rnNKoGe4K1dWwI-38" style="edgeStyle=orthogonalEdgeStyle;rounded=0;orthogonalLoop=1;jettySize=auto;html=1;" edge="1" parent="1" source="qJXxP2rnNKoGe4K1dWwI-37" target="qJXxP2rnNKoGe4K1dWwI-39">
          <mxGeometry relative="1" as="geometry">
            <mxPoint x="-295" y="240" as="targetPoint" />
          </mxGeometry>
        </mxCell>
        <mxCell id="qJXxP2rnNKoGe4K1dWwI-37" value="&lt;font style=&quot;font-size: 18px;&quot;&gt;//Создаем функцию которая принимает на вход массив строк и возвращает количество строк подходящий под параметр &amp;lt;=3&lt;/font&gt;&lt;div&gt;&lt;font size=&quot;3&quot;&gt;&lt;br&gt;&lt;/font&gt;&lt;div&gt;&lt;font size=&quot;3&quot;&gt;int Position (string[]str)&lt;/font&gt;&lt;/div&gt;&lt;div&gt;&lt;font size=&quot;3&quot;&gt;int count = 0;&lt;/font&gt;&lt;/div&gt;&lt;div&gt;&lt;font size=&quot;3&quot;&gt;&lt;br&gt;&lt;/font&gt;&lt;/div&gt;&lt;div&gt;&lt;font size=&quot;3&quot;&gt;&lt;br&gt;&lt;/font&gt;&lt;/div&gt;&lt;div&gt;&lt;font size=&quot;3&quot;&gt;&lt;br&gt;&lt;/font&gt;&lt;/div&gt;&lt;/div&gt;" style="rounded=0;whiteSpace=wrap;html=1;" vertex="1" parent="1">
          <mxGeometry x="-460" y="-90" width="330" height="210" as="geometry" />
        </mxCell>
        <mxCell id="qJXxP2rnNKoGe4K1dWwI-40" value="yes" style="edgeStyle=orthogonalEdgeStyle;rounded=0;orthogonalLoop=1;jettySize=auto;html=1;" edge="1" parent="1" source="qJXxP2rnNKoGe4K1dWwI-39" target="qJXxP2rnNKoGe4K1dWwI-41">
          <mxGeometry relative="1" as="geometry">
            <mxPoint x="-295" y="350" as="targetPoint" />
          </mxGeometry>
        </mxCell>
        <mxCell id="qJXxP2rnNKoGe4K1dWwI-48" style="edgeStyle=orthogonalEdgeStyle;rounded=0;orthogonalLoop=1;jettySize=auto;html=1;entryX=0;entryY=0.5;entryDx=0;entryDy=0;" edge="1" parent="1" source="qJXxP2rnNKoGe4K1dWwI-39">
          <mxGeometry relative="1" as="geometry">
            <mxPoint x="-50" y="240" as="targetPoint" />
          </mxGeometry>
        </mxCell>
        <mxCell id="qJXxP2rnNKoGe4K1dWwI-39" value="&lt;font size=&quot;3&quot;&gt;for(int i = 0;i &amp;lt; str.Length;i++)&lt;/font&gt;&lt;div&gt;&lt;font size=&quot;3&quot;&gt;&lt;br&gt;&lt;/font&gt;&lt;/div&gt;" style="rhombus;whiteSpace=wrap;html=1;" vertex="1" parent="1">
          <mxGeometry x="-461.87" y="190" width="333.75" height="100" as="geometry" />
        </mxCell>
        <mxCell id="qJXxP2rnNKoGe4K1dWwI-42" value="yes" style="edgeStyle=orthogonalEdgeStyle;rounded=0;orthogonalLoop=1;jettySize=auto;html=1;" edge="1" parent="1" source="qJXxP2rnNKoGe4K1dWwI-41" target="qJXxP2rnNKoGe4K1dWwI-43">
          <mxGeometry relative="1" as="geometry">
            <mxPoint x="-295" y="500" as="targetPoint" />
          </mxGeometry>
        </mxCell>
        <mxCell id="qJXxP2rnNKoGe4K1dWwI-46" value="no" style="edgeStyle=orthogonalEdgeStyle;rounded=0;orthogonalLoop=1;jettySize=auto;html=1;" edge="1" parent="1" source="qJXxP2rnNKoGe4K1dWwI-41">
          <mxGeometry relative="1" as="geometry">
            <mxPoint x="-560" y="385" as="targetPoint" />
          </mxGeometry>
        </mxCell>
        <mxCell id="qJXxP2rnNKoGe4K1dWwI-41" value="&lt;font size=&quot;3&quot;&gt;if(str[i].Count()&amp;lt;=3)&lt;/font&gt;" style="rhombus;whiteSpace=wrap;html=1;" vertex="1" parent="1">
          <mxGeometry x="-466.25" y="340" width="342.5" height="90" as="geometry" />
        </mxCell>
        <mxCell id="qJXxP2rnNKoGe4K1dWwI-44" style="edgeStyle=orthogonalEdgeStyle;rounded=0;orthogonalLoop=1;jettySize=auto;html=1;entryX=0;entryY=0.5;entryDx=0;entryDy=0;" edge="1" parent="1" source="qJXxP2rnNKoGe4K1dWwI-43" target="qJXxP2rnNKoGe4K1dWwI-39">
          <mxGeometry relative="1" as="geometry">
            <Array as="points">
              <mxPoint x="-560" y="535" />
              <mxPoint x="-560" y="240" />
            </Array>
          </mxGeometry>
        </mxCell>
        <mxCell id="qJXxP2rnNKoGe4K1dWwI-43" value="&lt;font size=&quot;3&quot;&gt;count ++;&lt;/font&gt;" style="rounded=0;whiteSpace=wrap;html=1;" vertex="1" parent="1">
          <mxGeometry x="-432.5" y="485" width="275" height="100" as="geometry" />
        </mxCell>
        <mxCell id="qJXxP2rnNKoGe4K1dWwI-55" style="edgeStyle=orthogonalEdgeStyle;rounded=0;orthogonalLoop=1;jettySize=auto;html=1;entryX=0.5;entryY=0;entryDx=0;entryDy=0;" edge="1" parent="1" source="qJXxP2rnNKoGe4K1dWwI-53" target="qJXxP2rnNKoGe4K1dWwI-54">
          <mxGeometry relative="1" as="geometry" />
        </mxCell>
        <mxCell id="qJXxP2rnNKoGe4K1dWwI-53" value="&lt;font style=&quot;font-size: 18px;&quot;&gt;// Создаём фунцию которая на вход принимает массив строк и выводит её на консоль&lt;/font&gt;&lt;div&gt;&lt;font size=&quot;3&quot;&gt;&lt;br&gt;&lt;/font&gt;&lt;/div&gt;&lt;div&gt;&lt;font size=&quot;3&quot;&gt;void PrinArrayString(string[]str)&lt;/font&gt;&lt;/div&gt;" style="rounded=0;whiteSpace=wrap;html=1;" vertex="1" parent="1">
          <mxGeometry x="1090" y="70" width="480" height="230" as="geometry" />
        </mxCell>
        <mxCell id="qJXxP2rnNKoGe4K1dWwI-60" value="YES" style="edgeStyle=orthogonalEdgeStyle;rounded=0;orthogonalLoop=1;jettySize=auto;html=1;entryX=0.5;entryY=0;entryDx=0;entryDy=0;" edge="1" parent="1" source="qJXxP2rnNKoGe4K1dWwI-54" target="qJXxP2rnNKoGe4K1dWwI-58">
          <mxGeometry relative="1" as="geometry" />
        </mxCell>
        <mxCell id="qJXxP2rnNKoGe4K1dWwI-89" style="edgeStyle=orthogonalEdgeStyle;rounded=0;orthogonalLoop=1;jettySize=auto;html=1;entryX=0;entryY=0.5;entryDx=0;entryDy=0;" edge="1" parent="1" source="qJXxP2rnNKoGe4K1dWwI-54" target="qJXxP2rnNKoGe4K1dWwI-88">
          <mxGeometry relative="1" as="geometry" />
        </mxCell>
        <mxCell id="qJXxP2rnNKoGe4K1dWwI-54" value="&lt;font size=&quot;3&quot;&gt;for(int i = 0;i &amp;lt; str.Length; i++)&lt;/font&gt;" style="rhombus;whiteSpace=wrap;html=1;" vertex="1" parent="1">
          <mxGeometry x="1105" y="390" width="450" height="130" as="geometry" />
        </mxCell>
        <mxCell id="qJXxP2rnNKoGe4K1dWwI-61" style="edgeStyle=orthogonalEdgeStyle;rounded=0;orthogonalLoop=1;jettySize=auto;html=1;entryX=0;entryY=0.5;entryDx=0;entryDy=0;" edge="1" parent="1" source="qJXxP2rnNKoGe4K1dWwI-58" target="qJXxP2rnNKoGe4K1dWwI-54">
          <mxGeometry relative="1" as="geometry">
            <Array as="points">
              <mxPoint x="1085" y="610" />
              <mxPoint x="1085" y="455" />
            </Array>
          </mxGeometry>
        </mxCell>
        <mxCell id="qJXxP2rnNKoGe4K1dWwI-58" value="&lt;font size=&quot;3&quot;&gt;Console.WriteLine(str[i] + &quot; &quot;);&lt;/font&gt;" style="rounded=0;whiteSpace=wrap;html=1;" vertex="1" parent="1">
          <mxGeometry x="1195" y="560" width="270" height="90" as="geometry" />
        </mxCell>
        <mxCell id="qJXxP2rnNKoGe4K1dWwI-64" value="" style="shape=curlyBracket;whiteSpace=wrap;html=1;rounded=1;labelPosition=left;verticalLabelPosition=middle;align=right;verticalAlign=middle;" vertex="1" parent="1">
          <mxGeometry x="980" y="-30" width="20" height="720" as="geometry" />
        </mxCell>
        <mxCell id="qJXxP2rnNKoGe4K1dWwI-65" value="" style="shape=curlyBracket;whiteSpace=wrap;html=1;rounded=1;flipH=1;labelPosition=right;verticalLabelPosition=middle;align=left;verticalAlign=middle;" vertex="1" parent="1">
          <mxGeometry x="1840" y="-10" width="20" height="730" as="geometry" />
        </mxCell>
        <mxCell id="qJXxP2rnNKoGe4K1dWwI-71" style="edgeStyle=orthogonalEdgeStyle;rounded=0;orthogonalLoop=1;jettySize=auto;html=1;" edge="1" parent="1">
          <mxGeometry relative="1" as="geometry">
            <mxPoint x="27.952631578947514" y="290" as="sourcePoint" />
            <mxPoint x="140.95" y="465" as="targetPoint" />
            <Array as="points">
              <mxPoint x="27.95" y="465" />
            </Array>
          </mxGeometry>
        </mxCell>
        <mxCell id="qJXxP2rnNKoGe4K1dWwI-76" value="&lt;font size=&quot;3&quot;&gt;return count;&lt;/font&gt;" style="shape=document;whiteSpace=wrap;html=1;boundedLbl=1;" vertex="1" parent="1">
          <mxGeometry x="-50" y="200" width="160" height="110" as="geometry" />
        </mxCell>
        <mxCell id="qJXxP2rnNKoGe4K1dWwI-84" style="edgeStyle=orthogonalEdgeStyle;rounded=0;orthogonalLoop=1;jettySize=auto;html=1;entryX=1;entryY=0.25;entryDx=0;entryDy=0;" edge="1" parent="1">
          <mxGeometry relative="1" as="geometry">
            <mxPoint x="770.090909090909" y="657.5" as="sourcePoint" />
            <mxPoint x="594.0699999999997" y="210" as="targetPoint" />
            <Array as="points">
              <mxPoint x="770" y="210.5" />
            </Array>
          </mxGeometry>
        </mxCell>
        <mxCell id="qJXxP2rnNKoGe4K1dWwI-77" value="&lt;font size=&quot;3&quot;&gt;return strnew;&lt;/font&gt;" style="shape=document;whiteSpace=wrap;html=1;boundedLbl=1;" vertex="1" parent="1">
          <mxGeometry x="660" y="630" width="220" height="140" as="geometry" />
        </mxCell>
        <mxCell id="qJXxP2rnNKoGe4K1dWwI-85" style="edgeStyle=orthogonalEdgeStyle;rounded=0;orthogonalLoop=1;jettySize=auto;html=1;entryX=0.295;entryY=0.369;entryDx=0;entryDy=0;entryPerimeter=0;" edge="1" parent="1">
          <mxGeometry relative="1" as="geometry">
            <mxPoint x="594.0699999999997" y="329.090909090909" as="sourcePoint" />
            <mxPoint x="985.8999999999996" y="329.6800000000012" as="targetPoint" />
          </mxGeometry>
        </mxCell>
        <mxCell id="qJXxP2rnNKoGe4K1dWwI-93" style="edgeStyle=orthogonalEdgeStyle;rounded=0;orthogonalLoop=1;jettySize=auto;html=1;entryX=0.5;entryY=0;entryDx=0;entryDy=0;" edge="1" parent="1" source="qJXxP2rnNKoGe4K1dWwI-88" target="qJXxP2rnNKoGe4K1dWwI-91">
          <mxGeometry relative="1" as="geometry" />
        </mxCell>
        <mxCell id="qJXxP2rnNKoGe4K1dWwI-88" value="&lt;font style=&quot;font-size: 18px;&quot;&gt;Вывод:&lt;/font&gt;&lt;div&gt;&lt;span style=&quot;font-size: 18px;&quot;&gt;&lt;br&gt;&lt;/span&gt;&lt;div&gt;&lt;font style=&quot;font-size: 18px;&quot;&gt;string[]str&lt;/font&gt;&lt;/div&gt;&lt;/div&gt;" style="shape=document;whiteSpace=wrap;html=1;boundedLbl=1;" vertex="1" parent="1">
          <mxGeometry x="1660" y="390" width="150" height="130" as="geometry" />
        </mxCell>
        <mxCell id="qJXxP2rnNKoGe4K1dWwI-91" value="&lt;font style=&quot;font-size: 18px;&quot;&gt;Конец&lt;/font&gt;" style="ellipse;whiteSpace=wrap;html=1;" vertex="1" parent="1">
          <mxGeometry x="1675" y="570" width="120" height="80" as="geometry" />
        </mxCell>
      </root>
    </mxGraphModel>
  </diagram>
</mxfile>
